<?xml version="1.0" encoding="UTF-8" standalone="no"?>
<!-- Created with Inkscape (http://www.inkscape.org/) -->

<svg
   width="256"
   height="256"
   viewBox="0 0 67.733332 67.733333"
   version="1.1"
   id="svg222"
   inkscape:version="1.2.2 (b0a8486541, 2022-12-01)"
   sodipodi:docname="logo.svg"
   inkscape:export-filename="logo-export.svg"
   inkscape:export-xdpi="96"
   inkscape:export-ydpi="96"
   xmlns:inkscape="http://www.inkscape.org/namespaces/inkscape"
   xmlns:sodipodi="http://sodipodi.sourceforge.net/DTD/sodipodi-0.dtd"
   xmlns="http://www.w3.org/2000/svg"
   xmlns:svg="http://www.w3.org/2000/svg"
   xmlns:rdf="http://www.w3.org/1999/02/22-rdf-syntax-ns#"
   xmlns:cc="http://creativecommons.org/ns#"
   xmlns:dc="http://purl.org/dc/elements/1.1/">
  <title
     id="title228">Telegram_logo</title>
  <sodipodi:namedview
     id="namedview224"
     pagecolor="#2097d4"
     bordercolor="#666666"
     borderopacity="1.0"
     inkscape:showpageshadow="2"
     inkscape:pageopacity="1"
     inkscape:pagecheckerboard="0"
     inkscape:deskcolor="#d1d1d1"
     inkscape:document-units="mm"
     showgrid="true"
     inkscape:zoom="3.7442931"
     inkscape:cx="152.89936"
     inkscape:cy="115.24205"
     inkscape:window-width="1914"
     inkscape:window-height="2093"
     inkscape:window-x="0"
     inkscape:window-y="26"
     inkscape:window-maximized="1"
     inkscape:current-layer="layer1">
    <inkscape:grid
       type="xygrid"
       id="grid2590"
       units="px"
       spacingx="4.2333333"
       spacingy="4.2333333" />
  </sodipodi:namedview>
  <defs
     id="defs219">
    <rect
       x="101.49996"
       y="50.392673"
       width="29.465757"
       height="27.418647"
       id="rect2399" />
    <rect
       x="15.901048"
       y="13.77435"
       width="224.84416"
       height="45.973486"
       id="rect1662" />
  </defs>
  <g
     inkscape:label="Layer 1"
     inkscape:groupmode="layer"
     id="layer1">
    <rect
       style="fill:#2097d4;stroke:none;stroke-width:0.264999;stroke-dasharray:none;fill-opacity:1"
       id="rect2644"
       width="67.780357"
       height="67.805206"
       x="0.028955417"
       y="0.006739846"
       inkscape:label="rect2644" />
    <g
       id="g1606"
       transform="rotate(77.032722,17.95236,29.228697)">
      <path
         d="m 22.779626,33.458129 3.766873,10.42617 c 0,0 0.470959,0.975519 0.975254,0.975519 0.504296,0 8.004969,-7.803091 8.004969,-7.803091 l 8.340989,-16.110479 -20.953676,9.820539 z"
         fill="#c8daea"
         id="path13"
         style="stroke-width:0.264583" />
      <path
         d="m 27.774166,36.132008 -0.723106,7.685087 c 0,0 -0.302684,2.354792 2.051579,0 2.354262,-2.354792 4.607718,-4.170627 4.607718,-4.170627"
         fill="#a9c6d8"
         id="path15"
         style="stroke-width:0.264583" />
      <path
         d="m 22.847624,33.830133 -7.748587,-2.524654 c 0,0 -0.926042,-0.375708 -0.627856,-1.227667 0.06138,-0.175683 0.185208,-0.325173 0.555625,-0.582083 1.716881,-1.196711 31.778045,-12.0015 31.778045,-12.0015 0,0 0.848783,-0.286015 1.349375,-0.09578 a 0.73183749,0.73183749 0 0 1 0.49874,0.543718 2.4757062,2.4757062 0 0 1 0.0672,0.683948 c -0.0024,0.198967 -0.02646,0.383382 -0.04472,0.672571 -0.183092,2.954073 -5.662083,25.001273 -5.662083,25.001273 0,0 -0.327819,1.290108 -1.502304,1.334293 A 2.1510625,2.1510625 0 0 1 39.943412,45.027828 C 37.638626,43.045306 29.672551,37.691727 27.912278,36.514331 a 0.33602083,0.33602083 0 0 1 -0.144462,-0.238125 c -0.02461,-0.12409 0.110331,-0.277813 0.110331,-0.277813 0,0 13.871046,-12.329583 14.240139,-13.623924 0.02858,-0.100278 -0.07937,-0.149755 -0.224366,-0.105834 -0.921279,0.338931 -16.892058,10.424583 -18.654712,11.537685 a 0.84931249,0.84931249 0 0 1 -0.391584,0.02381 z"
         fill="#ffffff"
         id="path17"
         style="stroke-width:0.264583" />
    </g>
    <text
       xml:space="preserve"
       transform="scale(0.26458333)"
       id="text1660"
       style="font-style:normal;font-weight:normal;font-size:16px;line-height:1.25;font-family:sans-serif;letter-spacing:0px;word-spacing:0px;white-space:pre;shape-inside:url(#rect1662);display:inline;fill:#000000;fill-opacity:1;stroke:none" />
    <text
       xml:space="preserve"
       style="font-style:normal;font-weight:normal;font-size:14.1111px;line-height:1.25;font-family:sans-serif;letter-spacing:0px;word-spacing:0px;fill:#000000;fill-opacity:1;stroke:none;stroke-width:0.265;stroke-dasharray:none"
       x="3.255723"
       y="18.582947"
       id="text1668"><tspan
         sodipodi:role="line"
         id="tspan1666"
         style="font-style:normal;font-variant:normal;font-weight:normal;font-stretch:normal;font-size:14.1111px;font-family:Verdana;-inkscape-font-specification:Verdana;fill:#ffffff;stroke-width:0.265;stroke-dasharray:none"
         x="3.255723"
         y="18.582947">Telegram</tspan></text>
    <text
       xml:space="preserve"
       style="font-style:normal;font-weight:normal;font-size:14.1111px;line-height:1.25;font-family:sans-serif;letter-spacing:0px;word-spacing:0px;fill:#000000;fill-opacity:1;stroke:none;stroke-width:0.265;stroke-dasharray:none"
       x="40.290604"
       y="42.780735"
       id="text1668-3"><tspan
         sodipodi:role="line"
         id="tspan1666-6"
         style="font-style:normal;font-variant:normal;font-weight:normal;font-stretch:normal;font-size:14.1111px;font-family:Verdana;-inkscape-font-specification:Verdana;fill:#ffffff;stroke-width:0.265;stroke-dasharray:none"
         x="40.290604"
         y="42.780735">I.V.</tspan></text>
    <text
       xml:space="preserve"
       transform="scale(0.26458333)"
       id="text2397"
       style="font-style:normal;font-weight:normal;font-size:16px;line-height:1.25;font-family:sans-serif;letter-spacing:0px;word-spacing:0px;white-space:pre;shape-inside:url(#rect2399);display:inline;fill:#000000;fill-opacity:1;stroke:none" />
  </g>
  <metadata
     id="metadata782">
    <rdf:RDF>
      <cc:Work
         rdf:about="">
        <dc:title>Telegram_logo</dc:title>
        <cc:license
           rdf:resource="http://creativecommons.org/licenses/by/4.0/" />
      </cc:Work>
      <cc:License
         rdf:about="http://creativecommons.org/licenses/by/4.0/">
        <cc:permits
           rdf:resource="http://creativecommons.org/ns#Reproduction" />
        <cc:permits
           rdf:resource="http://creativecommons.org/ns#Distribution" />
        <cc:requires
           rdf:resource="http://creativecommons.org/ns#Notice" />
        <cc:requires
           rdf:resource="http://creativecommons.org/ns#Attribution" />
        <cc:permits
           rdf:resource="http://creativecommons.org/ns#DerivativeWorks" />
      </cc:License>
    </rdf:RDF>
  </metadata>
</svg>
